<svg width="330" height="129" viewBox="0 0 330 129" fill="none" xmlns="http://www.w3.org/2000/svg">
<rect width="330" height="129" fill="#1E1E1E"/>
<g clip-path="url(#clip0_0_1)">
<path d="M330 0H0V129H330V0Z" fill="#1E1E1E"/>
<rect width="340" height="136" fill="white"/>
<path d="M327.485 0H2.51524C1.12611 0 0 1.17868 0 2.63265V126.367C0 127.821 1.12611 129 2.51524 129H327.485C328.874 129 330 127.821 330 126.367V2.63265C330 1.17868 328.874 0 327.485 0Z" fill="white"/>
<path d="M199.185 53.7061L206.361 37.1204H208.602L215.8 53.7061H213.423L207.017 38.4473H207.923L201.516 53.7061H199.185ZM202.241 49.5597L202.852 47.6642H211.771L212.427 49.5597H202.241ZM221.177 53.8483C220.181 53.8483 219.231 53.7061 218.325 53.4218C217.435 53.1375 216.733 52.79 216.22 52.3793L217.125 50.5785C217.639 50.9418 218.272 51.2499 219.027 51.5026C219.782 51.7553 220.551 51.8817 221.336 51.8817C222.347 51.8817 223.071 51.7316 223.509 51.4315C223.962 51.1314 224.188 50.7128 224.188 50.1757C224.188 49.7808 224.052 49.4728 223.781 49.2517C223.509 49.0305 223.147 48.8647 222.694 48.7541C222.257 48.6435 221.766 48.5488 221.223 48.4698C220.679 48.375 220.136 48.2644 219.593 48.1381C219.05 47.9959 218.552 47.8064 218.099 47.5694C217.646 47.3167 217.284 46.9771 217.012 46.5506C216.741 46.1083 216.605 45.5238 216.605 44.7972C216.605 44.039 216.809 43.3756 217.216 42.807C217.623 42.2383 218.197 41.8039 218.936 41.5038C219.691 41.1879 220.581 41.0299 221.608 41.0299C222.392 41.0299 223.185 41.1326 223.984 41.3379C224.799 41.5275 225.463 41.8039 225.977 42.1672L225.048 43.9679C224.505 43.5888 223.939 43.3282 223.351 43.186C222.762 43.0439 222.174 42.9728 221.585 42.9728C220.634 42.9728 219.925 43.1387 219.457 43.4704C218.989 43.7863 218.755 44.197 218.755 44.7025C218.755 45.1289 218.891 45.4607 219.163 45.6976C219.45 45.9187 219.812 46.0925 220.249 46.2189C220.702 46.3452 221.2 46.4558 221.743 46.5506C222.287 46.6296 222.83 46.7401 223.373 46.8823C223.917 47.0087 224.407 47.1903 224.845 47.4273C225.297 47.6642 225.66 47.9959 225.931 48.4224C226.218 48.8489 226.361 49.4175 226.361 50.1284C226.361 50.8866 226.15 51.5421 225.728 52.095C225.305 52.6478 224.709 53.0822 223.939 53.3981C223.17 53.6982 222.249 53.8483 221.177 53.8483ZM229.077 53.7061V36.1253H231.251V53.7061H229.077ZM240.448 53.8483C239.422 53.8483 238.517 53.6508 237.732 53.2559C236.962 52.8611 236.358 52.2608 235.921 51.4552C235.498 50.6338 235.287 49.6071 235.287 48.375V41.1484H237.46V48.1144C237.46 49.3465 237.739 50.2705 238.298 50.8866C238.871 51.5026 239.671 51.8106 240.697 51.8106C241.452 51.8106 242.108 51.6527 242.667 51.3367C243.225 51.005 243.655 50.5312 243.957 49.9151C244.259 49.2833 244.41 48.5251 244.41 47.6405V41.1484H246.583V53.7061H244.523V50.3179L244.863 51.2183C244.47 52.0555 243.882 52.7031 243.097 53.1612C242.312 53.6193 241.429 53.8483 240.448 53.8483Z" fill="black"/>
<path d="M201.471 71.7793H206.124V72.6086H201.471V71.7793ZM201.572 76.031H206.866V76.8735H200.641V67.6592H206.678V68.5016H201.572V76.031ZM212.236 69.8969C212.772 69.8969 213.242 70.0065 213.644 70.226C214.055 70.4366 214.374 70.7615 214.6 71.2001C214.835 71.6387 214.952 72.1916 214.952 72.8587V76.8735H214.059V72.9508C214.059 72.2226 213.883 71.674 213.531 71.3054C213.187 70.9279 212.701 70.7394 212.072 70.7394C211.602 70.7394 211.192 70.8405 210.84 71.0422C210.496 71.2354 210.228 71.5202 210.035 71.8978C209.85 72.2663 209.758 72.7139 209.758 73.2404V76.8735H208.865V69.9628H209.721V71.8583L209.582 71.5029C209.791 71.0027 210.127 70.612 210.588 70.3313C211.049 70.0417 211.598 69.8969 212.236 69.8969ZM219.452 76.9393C218.831 76.9393 218.353 76.764 218.018 76.4128C217.682 76.0616 217.515 75.5661 217.515 74.9253V68.4358H218.408V74.8727C218.408 75.2765 218.504 75.5877 218.697 75.8073C218.898 76.0268 219.183 76.1363 219.552 76.1363C219.946 76.1363 220.273 76.0179 220.533 75.7809L220.847 76.4523C220.671 76.6192 220.458 76.7418 220.206 76.8208C219.963 76.8998 219.712 76.9393 219.452 76.9393ZM216.333 70.7394V69.9628H220.42V70.7394H216.333ZM225.044 76.9393C224.357 76.9393 223.753 76.7903 223.233 76.4917C222.713 76.1848 222.307 75.7678 222.014 75.2412C221.72 74.7057 221.573 74.096 221.573 73.4115C221.573 72.727 221.712 72.1215 221.988 71.595C222.273 71.0685 222.659 70.6562 223.145 70.3577C223.64 70.0507 224.193 69.8969 224.805 69.8969C225.426 69.8969 225.975 70.046 226.453 70.3445C226.939 70.6341 227.321 71.0464 227.597 71.5818C227.874 72.1084 228.012 72.7181 228.012 73.4115C228.012 73.4552 228.008 73.5037 228 73.5563C228 73.6 228 73.6485 228 73.7011H222.252V73.0035H227.522L227.17 73.2799C227.17 72.7797 227.065 72.3364 226.855 71.9504C226.654 71.5555 226.377 71.2485 226.025 71.029C225.673 70.8094 225.266 70.6999 224.805 70.6999C224.353 70.6999 223.946 70.8094 223.586 71.029C223.225 71.2485 222.944 71.5555 222.743 71.9504C222.542 72.3453 222.441 72.7971 222.441 73.3062V73.451C222.441 73.9776 222.55 74.4425 222.768 74.8463C222.994 75.2412 223.304 75.5529 223.699 75.7809C224.101 76.0005 224.558 76.11 225.07 76.11C225.472 76.11 225.845 76.0352 226.189 75.8862C226.541 75.7372 226.843 75.5087 227.094 75.2017L227.597 75.8073C227.304 76.1758 226.935 76.4565 226.491 76.6497C226.055 76.8429 225.573 76.9393 225.044 76.9393ZM229.829 76.8735V69.9628H230.685V71.8451L230.597 71.516C230.781 70.9895 231.092 70.5904 231.527 70.3182C231.963 70.0375 232.504 69.8969 233.15 69.8969V70.8052C233.116 70.8052 233.083 70.8052 233.049 70.8052C233.016 70.7963 232.982 70.792 232.948 70.792C232.253 70.792 231.708 71.0158 231.313 71.4634C230.92 71.902 230.722 72.5296 230.722 73.3457V76.8735H229.829ZM237.149 76.9393C236.529 76.9393 236.051 76.764 235.716 76.4128C235.38 76.0616 235.213 75.5661 235.213 74.9253V68.4358H236.105V74.8727C236.105 75.2765 236.202 75.5877 236.395 75.8073C236.596 76.0268 236.881 76.1363 237.25 76.1363C237.644 76.1363 237.971 76.0179 238.231 75.7809L238.545 76.4523C238.369 76.6192 238.155 76.7418 237.904 76.8208C237.66 76.8998 237.409 76.9393 237.149 76.9393ZM234.03 70.7394V69.9628H238.118V70.7394H234.03ZM244.308 76.8735V75.3465L244.27 75.0964V72.5428C244.27 71.9546 244.111 71.5029 243.793 71.1869C243.482 70.871 243.017 70.7131 242.397 70.7131C241.969 70.7131 241.563 70.7878 241.177 70.9368C240.791 71.0859 240.464 71.2833 240.196 71.5292L239.793 70.8315C240.129 70.533 240.531 70.305 241.001 70.1471C241.47 69.9801 241.965 69.8969 242.485 69.8969C243.34 69.8969 243.998 70.1207 244.459 70.5683C244.928 71.0069 245.163 71.6782 245.163 72.5823V76.8735H244.308ZM242.032 76.9393C241.537 76.9393 241.105 76.8561 240.737 76.6892C240.376 76.5139 240.099 76.2769 239.906 75.9784C239.714 75.6714 239.617 75.3202 239.617 74.9253C239.617 74.5657 239.697 74.2408 239.856 73.9512C240.024 73.6527 240.292 73.4158 240.661 73.2404C241.038 73.0561 241.541 72.964 242.17 72.964H244.447V73.6616H242.195C241.558 73.6616 241.114 73.7801 240.862 74.017C240.619 74.254 240.498 74.5478 240.498 74.899C240.498 75.2939 240.644 75.6098 240.938 75.8467C241.231 76.0837 241.642 76.2022 242.17 76.2022C242.673 76.2022 243.105 76.0837 243.466 75.8467C243.834 75.6009 244.103 75.2502 244.27 74.7937L244.472 75.4387C244.304 75.8952 244.01 76.259 243.591 76.5312C243.18 76.8035 242.661 76.9393 242.032 76.9393ZM247.589 76.8735V69.9628H248.481V76.8735H247.589ZM248.041 68.4358C247.857 68.4358 247.702 68.37 247.576 68.2384C247.45 68.1067 247.387 67.9488 247.387 67.7645C247.387 67.5802 247.45 67.4265 247.576 67.3038C247.702 67.1721 247.857 67.1063 248.041 67.1063C248.226 67.1063 248.381 67.1679 248.507 67.2906C248.632 67.4133 248.695 67.567 248.695 67.7513C248.695 67.9446 248.632 68.1067 248.507 68.2384C248.389 68.37 248.234 68.4358 248.041 68.4358ZM254.336 69.8969C254.873 69.8969 255.343 70.0065 255.745 70.226C256.156 70.4366 256.474 70.7615 256.701 71.2001C256.936 71.6387 257.053 72.1916 257.053 72.8587V76.8735H256.16V72.9508C256.16 72.2226 255.984 71.674 255.632 71.3054C255.288 70.9279 254.802 70.7394 254.173 70.7394C253.704 70.7394 253.293 70.8405 252.94 71.0422C252.597 71.2354 252.328 71.5202 252.136 71.8978C251.951 72.2663 251.859 72.7139 251.859 73.2404V76.8735H250.966V69.9628H251.821V71.8583L251.683 71.5029C251.893 71.0027 252.228 70.612 252.689 70.3313C253.15 70.0417 253.699 69.8969 254.336 69.8969ZM267.715 69.8969C268.251 69.8969 268.717 70.0065 269.111 70.226C269.513 70.4366 269.823 70.7615 270.042 71.2001C270.268 71.6387 270.381 72.1916 270.381 72.8587V76.8735H269.488V72.9508C269.488 72.2226 269.32 71.674 268.985 71.3054C268.658 70.9279 268.193 70.7394 267.589 70.7394C267.137 70.7394 266.742 70.8405 266.407 71.0422C266.08 71.2354 265.824 71.5202 265.64 71.8978C265.464 72.2663 265.376 72.7139 265.376 73.2404V76.8735H264.483V72.9508C264.483 72.2226 264.315 71.674 263.98 71.3054C263.644 70.9279 263.175 70.7394 262.571 70.7394C262.127 70.7394 261.737 70.8405 261.402 71.0422C261.066 71.2354 260.806 71.5202 260.622 71.8978C260.446 72.2663 260.358 72.7139 260.358 73.2404V76.8735H259.465V69.9628H260.32V71.8319L260.182 71.5029C260.383 71.0027 260.706 70.612 261.15 70.3313C261.603 70.0417 262.135 69.8969 262.747 69.8969C263.393 69.8969 263.942 70.0681 264.395 70.4103C264.848 70.7436 265.141 71.2486 265.275 71.9241L264.923 71.7793C265.116 71.2175 265.455 70.7657 265.942 70.4235C266.436 70.0723 267.027 69.8969 267.715 69.8969ZM275.607 76.9393C274.92 76.9393 274.316 76.7903 273.796 76.4917C273.276 76.1848 272.87 75.7678 272.576 75.2412C272.283 74.7057 272.136 74.096 272.136 73.4115C272.136 72.727 272.274 72.1215 272.551 71.595C272.836 71.0685 273.222 70.6562 273.708 70.3577C274.203 70.0507 274.756 69.8969 275.368 69.8969C275.989 69.8969 276.537 70.046 277.015 70.3445C277.502 70.6341 277.883 71.0464 278.16 71.5818C278.437 72.1084 278.575 72.7181 278.575 73.4115C278.575 73.4552 278.571 73.5037 278.562 73.5563C278.562 73.6 278.562 73.6485 278.562 73.7011H272.815V73.0035H278.084L277.732 73.2799C277.732 72.7797 277.628 72.3364 277.418 71.9504C277.217 71.5555 276.94 71.2485 276.588 71.029C276.236 70.8094 275.829 70.6999 275.368 70.6999C274.915 70.6999 274.509 70.8094 274.148 71.029C273.788 71.2485 273.507 71.5555 273.305 71.9504C273.104 72.3453 273.004 72.7971 273.004 73.3062V73.451C273.004 73.9776 273.113 74.4425 273.331 74.8463C273.557 75.2412 273.867 75.5529 274.261 75.7809C274.664 76.0005 275.121 76.11 275.632 76.11C276.034 76.11 276.408 76.0352 276.751 75.8862C277.103 75.7372 277.405 75.5087 277.657 75.2017L278.16 75.8073C277.867 76.1758 277.498 76.4565 277.053 76.6497C276.617 76.8429 276.135 76.9393 275.607 76.9393ZM283.763 69.8969C284.3 69.8969 284.769 70.0065 285.171 70.226C285.582 70.4366 285.901 70.7615 286.127 71.2001C286.362 71.6387 286.479 72.1916 286.479 72.8587V76.8735H285.586V72.9508C285.586 72.2226 285.41 71.674 285.058 71.3054C284.715 70.9279 284.228 70.7394 283.599 70.7394C283.13 70.7394 282.719 70.8405 282.367 71.0422C282.023 71.2354 281.755 71.5202 281.562 71.8978C281.377 72.2663 281.285 72.7139 281.285 73.2404V76.8735H280.392V69.9628H281.248V71.8583L281.109 71.5029C281.319 71.0027 281.654 70.612 282.115 70.3313C282.577 70.0417 283.125 69.8969 283.763 69.8969ZM290.979 76.9393C290.358 76.9393 289.88 76.764 289.545 76.4128C289.21 76.0616 289.042 75.5661 289.042 74.9253V68.4358H289.935V74.8727C289.935 75.2765 290.031 75.5877 290.224 75.8073C290.426 76.0268 290.71 76.1363 291.08 76.1363C291.474 76.1363 291.8 76.0179 292.061 75.7809L292.375 76.4523C292.199 76.6192 291.985 76.7418 291.734 76.8208C291.49 76.8998 291.239 76.9393 290.979 76.9393ZM287.86 70.7394V69.9628H291.947V70.7394H287.86Z" fill="black"/>
<mask id="mask0_0_1" style="mask-type:luminance" maskUnits="userSpaceOnUse" x="6" y="5" width="194" height="120">
<path d="M199.207 5.2653H6.03659V124.788H199.207V5.2653Z" fill="white"/>
</mask>
<g mask="url(#mask0_0_1)">
<g opacity="0.7" filter="url(#filter0_d_0_1)">
<path d="M64.843 109.135H58.245L51.5072 107.621L50.6158 107.388L43.8111 99.0931L39.481 91.4526L35.3571 80.5381L34.5324 73.3341L33.7076 65.0392L34.5324 56.0892L35.3571 51.7233L38.6563 41.6818L44.0173 32.2952L51.6465 23.3452L60.719 17.0147L71.441 12.6488L78.0395 10.9025L85.2562 10.6842L91.0297 10.9025L91.4422 10.951L94.7412 11.3391L102.164 12.6488L108.556 15.0501L115.361 18.7611L121.34 23.3452L126.908 29.0208L131.444 36.0062L134.743 42.3367L136.805 48.4489L137.836 54.9977V60.0182L133.094 66.7857L128.557 73.7706L123.402 80.1016L118.248 85.7771L111.649 92.1076L106.082 96.0366L98.0402 100.839L93.2979 103.459L85.875 106.515L78.2457 108.48L71.6472 109.135H64.843Z" fill="url(#paint0_linear_0_1)"/>
<path d="M155.569 28.8025L153.713 27.7111L151.857 33.605L149.383 40.3721L145.053 49.5404L140.517 57.1807L138.248 61.5467L133.712 68.3137L129.176 75.0806L124.433 80.9746L120.309 85.7771L117.01 89.2696L112.886 92.7626L107.938 96.6916L102.989 99.9661L97.4219 103.022L90.6172 105.86L85.0499 108.043L80.926 108.916L75.153 110.226L69.9977 110.444H62.5747L58.8632 110.226L54.7393 109.353L48.1412 108.043L42.7802 105.86L35.9757 101.713L31.4394 97.5651L26.697 91.0161L24.635 86.6501L22.3669 78.5731L21.7483 70.7146L22.7793 63.5112L25.2536 56.9622L28.9651 51.2867L32.4704 47.3574L24.8412 50.1953L19.6864 54.3427L15.5625 58.4902L11.6448 65.0392L9.37663 70.7146L8.55183 75.0806L8.75803 81.6296L9.99518 86.8686L12.0571 91.4526L16.181 97.5651L20.7173 102.586L25.0474 106.078L29.5837 109.135L33.5014 111.536L38.4501 113.719L47.5226 116.993L55.5643 118.739L62.5747 119.612L67.3175 120.049L78.8645 119.612L85.8749 118.739L91.6484 117.648L99.6897 115.246L107.525 112.846L119.485 107.388L126.495 102.804L133.918 97.5651L142.166 90.1431L150.62 80.9746L157.425 71.1511L160.93 65.4757L163.816 68.0952L167.528 60.8917L169.177 56.5257L171.033 51.7233L172.477 46.9208L173.508 43.6464L174.126 45.1745L173.508 50.6318L172.477 56.0892L170.209 63.0747L167.528 69.4052L165.26 73.7706L159.487 82.7211L153.507 89.7061L146.496 96.9101L138.661 102.804L128.557 109.135L118.248 113.937L110.824 116.119H116.598L122.784 115.246L128.97 113.937L136.186 111.972L143.816 109.135L152.064 104.769L158.868 100.185L165.672 94.2906L170.827 87.9601L177.219 77.7001L180.931 68.5316L182.58 58.9272V51.505L181.343 44.3013L173.92 37.5343L164.229 40.1538L160.105 40.5904L164.229 27.4928L159.074 28.8025H155.569Z" fill="url(#paint1_linear_0_1)"/>
<path d="M174.126 35.7879L162.786 38.6257L165.878 27.0562L158.455 15.9232L172.477 16.5781L180.724 6.31837L183.405 18.9794L196.189 24.4367L185.261 31.6403L184.23 44.3013L174.126 35.7879Z" fill="url(#paint2_linear_0_1)"/>
<path d="M51.4403 107.607L51.5072 107.621M51.5072 107.621L58.245 109.135H64.843H71.6472L78.2457 108.48L85.875 106.515L93.298 103.459L98.0402 100.839L106.082 96.0366L111.649 92.1076L118.248 85.7771L123.402 80.1016L128.557 73.7706L133.094 66.7857L137.836 60.0182V54.9977L136.805 48.4489L134.743 42.3367L131.444 36.0062L126.908 29.0208L121.34 23.3452L115.361 18.7611L108.556 15.0501L102.164 12.6488L94.7412 11.3391L91.4422 10.951M51.5072 107.621L50.6158 107.388L43.8111 99.0931L39.481 91.4526L35.3571 80.5381L34.5324 73.3341L33.7076 65.0392L34.5324 56.0892L35.3571 51.7233L38.6563 41.6818L44.0173 32.2952L51.6465 23.3452L60.719 17.0147L71.441 12.6488L78.0395 10.9025L85.2562 10.6842L91.0297 10.9025L91.4422 10.951M91.4422 10.951L85.2562 12.6488L80.3077 14.3952M80.3077 14.3952L75.7712 15.4867L70.4102 17.8879L63.3998 21.8172L58.0388 26.8379L53.0898 32.2952L49.997 37.7526L46.6979 44.083L43.8111 53.0332V61.3282V68.0952L45.0483 75.5171L46.6979 80.1016L49.997 85.7771L53.5023 92.1076L57.2138 97.3466L63.8123 103.459L71.2352 108.48M80.3077 14.3952L76.8025 16.3598L74.328 18.2309M74.328 18.2309L72.4722 19.6342L67.5237 24.0001L62.9873 28.8025L59.0695 34.4782L55.9768 41.2453L54.121 47.3574L52.8835 52.3782V57.6172V64.8207L53.9148 70.9332L55.7705 77.0451L57.8325 82.5026L62.1623 89.0516L67.7295 95.6001L73.503 100.403L80.926 104.987L85.4625 106.515M74.328 18.2309L72.4722 21.1623L69.9977 25.5282L66.6987 32.0769L64.4305 36.8794L63.1935 44.083L62.781 49.7587V55.4342L64.4305 63.5112L66.6987 69.8417L69.3795 75.7356L74.1217 81.8476L78.2457 86.4321L83.6067 91.0161L93.298 96.0366L102.37 97.7831M108.763 36.2245L110.412 32.2952L114.124 29.2391L111.443 27.7111L108.556 22.9086L106.288 27.0562L102.989 29.2391L107.319 32.5135L108.556 36.2245M87.7307 82.9391L88.9677 79.8831L92.0605 77.0451L89.7927 75.5171L87.7307 71.8062L86.0812 75.2991L83.6067 77.2636L86.9057 80.3196L87.7307 82.9391ZM99.0714 75.2991L106.907 68.5317L116.804 70.9332L113.299 60.6732L118.866 51.505H107.731L100.721 43.2099L98.4527 54.1247L88.1432 58.7087L97.4219 64.3842L99.0714 75.2991ZM153.713 27.7111L155.569 28.8025H159.074L164.229 27.4928L160.105 40.5904L164.229 40.1538L173.92 37.5343L181.343 44.3013L182.58 51.505V58.9272L180.931 68.5317L177.219 77.7001L170.827 87.9601L165.672 94.2906L158.868 100.185L152.064 104.769L143.816 109.135L136.186 111.972L128.97 113.937L122.784 115.247L116.598 116.119H110.824L118.248 113.937L128.557 109.135L138.661 102.804L146.496 96.9101L153.507 89.7061L159.487 82.7211L165.26 73.7706L167.528 69.4052L170.209 63.0747L172.477 56.0892L173.508 50.6318L174.126 45.1745L173.508 43.6464L172.477 46.9208L171.033 51.7233L169.177 56.5257L167.528 60.8917L163.816 68.0952L160.93 65.4757L157.425 71.1511L150.62 80.9746L142.166 90.1431L133.918 97.5646L126.495 102.804L119.485 107.388L107.525 112.846L99.6897 115.247L91.6485 117.648L85.875 118.739L78.8645 119.613L67.3175 120.049L62.5748 119.613L55.5643 118.739L47.5226 116.993L38.4501 113.719L33.5014 111.536L29.5837 109.135L25.0474 106.078L20.7173 102.586L16.181 97.5646L12.0571 91.4526L9.99518 86.8686L8.75803 81.6296L8.55183 75.0806L9.37663 70.7146L11.6448 65.0392L15.5625 58.4902L19.6864 54.3427L24.8412 50.1953L32.4704 47.3574L28.9651 51.2867L25.2536 56.9622L22.7793 63.5112L21.7483 70.7146L22.3669 78.5731L24.635 86.6501L26.697 91.0161L31.4394 97.5646L35.9757 101.713L42.7802 105.86L48.1412 108.043L54.7393 109.353L58.8633 110.226L62.5748 110.444H69.9977L75.153 110.226L80.926 108.916L85.05 108.043L90.6172 105.86L97.4219 103.022L102.989 99.9661L107.938 96.6916L112.886 92.7626L117.01 89.2696L120.309 85.7771L124.433 80.9746L129.176 75.0806L133.712 68.3137L138.248 61.5467L140.517 57.1807L145.053 49.5404L149.383 40.3721L151.857 33.605L153.713 27.7111ZM162.786 38.6257L174.126 35.7879L184.23 44.3013L185.261 31.6403L196.189 24.4367L183.405 18.9794L180.724 6.31837L172.477 16.5781L158.455 15.9232L165.878 27.0562L162.786 38.6257Z" stroke="white"/>
</g>
<mask id="mask1_0_1" style="mask-type:luminance" maskUnits="userSpaceOnUse" x="42" y="10" width="78" height="102">
<path d="M119.726 10.0041H42.7592V111.624H119.726V10.0041Z" fill="white"/>
</mask>
<g mask="url(#mask1_0_1)">
<g opacity="0.2">
<path d="M88.7715 80.9593L87.935 83.869L86.6803 80.9593L83.5428 78.2735L86.2618 76.0352L87.7262 72.4538L90.0266 76.4828L92.3271 78.0492L88.7715 80.9593Z" fill="url(#paint3_linear_0_1)"/>
<path d="M106.968 69.3199L99.2289 76.259L97.5558 64.8433L87.935 59.0236L98.6016 54.3232L100.902 43.1314L108.222 51.6371H119.307L113.66 61.2618L117.216 71.5581L106.968 69.3199Z" fill="url(#paint4_linear_0_1)"/>
<path d="M110.732 31.9398L108.85 35.7449L107.386 31.9398L103.621 28.8061L106.34 27.0154L108.85 22.3149L111.569 27.0154L114.497 28.8061L110.732 31.9398Z" fill="url(#paint5_linear_0_1)"/>
<path d="M78.942 15.1522L72.6674 18.9574L64.3012 35.9688L62.8373 44.0268V56.3377L65.1378 67.0816L68.6933 76.0347L72.2489 80.9593L82.9155 91.7032L93.5822 97.2992L102.661 99.1541L85.6345 108.043L71.8309 110.953L63.8832 105.581L53.0073 93.2702L44.6415 77.3779L43.1774 68.6485L43.3866 52.5324L46.3147 43.5791L52.5892 31.7159L63.2559 20.9719L73.504 15.1522L90.4447 10.4517L85.0072 12.6901L78.942 15.1522Z" fill="url(#paint6_linear_0_1)"/>
<path d="M102.784 99.0899L102.661 99.1541M102.661 99.1541L85.6345 108.043M102.661 99.1541L93.5822 97.2992L82.9155 91.7032L72.2489 80.9593L68.6933 76.0347L65.1378 67.0816L62.8373 56.3377V44.0268L64.3012 35.9688L72.6674 18.9574M85.6345 108.043L82.4975 107.148L76.8503 103.79L70.785 99.7612L66.6022 95.7322L61.5822 90.1362L58.4452 84.9884L55.517 78.2735L53.6351 71.7819L52.38 64.8433V57.0091V52.3086L53.6351 46.489L55.517 40.8931L58.4452 33.9543L63.2559 27.4631L68.6933 21.6434L72.6674 18.9574M85.6345 108.043L71.8309 110.953L63.8832 105.581L53.0073 93.2702L44.6415 77.3779L43.1774 68.6485L43.3866 52.5324L46.3147 43.5791L52.5892 31.7159L63.2559 20.9719L73.504 15.1522L90.4447 10.4517L85.0072 12.6901L78.942 15.1522L72.6674 18.9574M87.935 83.869L88.7715 80.9593L92.3271 78.0492L90.0266 76.4828L87.7262 72.4538L86.2618 76.0347L83.5428 78.2735L86.6803 80.9593L87.935 83.869ZM99.2289 76.259L106.968 69.3199L117.216 71.5581L113.66 61.2618L119.307 51.6371H108.222L100.903 43.1314L98.6016 54.3232L87.935 59.0236L97.5558 64.8433L99.2289 76.259ZM108.85 35.745L110.732 31.9398L114.497 28.8061L111.569 27.0154L108.85 22.3149L106.34 27.0154L103.621 28.8061L107.386 31.9398L108.85 35.745Z" stroke="white"/>
</g>
</g>
</g>
</g>
<defs>
<filter id="filter0_d_0_1" x="4.05035" y="5.18346" width="197.191" height="123.366" filterUnits="userSpaceOnUse" color-interpolation-filters="sRGB">
<feFlood flood-opacity="0" result="BackgroundImageFix"/>
<feColorMatrix in="SourceAlpha" type="matrix" values="0 0 0 0 0 0 0 0 0 0 0 0 0 0 0 0 0 0 127 0" result="hardAlpha"/>
<feOffset dy="4"/>
<feGaussianBlur stdDeviation="2"/>
<feComposite in2="hardAlpha" operator="out"/>
<feColorMatrix type="matrix" values="0 0 0 0 0 0 0 0 0 0 0 0 0 0 0 0 0 0 0.25 0"/>
<feBlend mode="normal" in2="BackgroundImageFix" result="effect1_dropShadow_0_1"/>
<feBlend mode="normal" in="SourceGraphic" in2="effect1_dropShadow_0_1" result="shape"/>
</filter>
<linearGradient id="paint0_linear_0_1" x1="8.55183" y1="63.1837" x2="196.189" y2="63.1837" gradientUnits="userSpaceOnUse">
<stop stop-color="#C84E89"/>
<stop offset="1" stop-color="#F15F79"/>
</linearGradient>
<linearGradient id="paint1_linear_0_1" x1="8.55183" y1="63.1837" x2="196.189" y2="63.1837" gradientUnits="userSpaceOnUse">
<stop stop-color="#C84E89"/>
<stop offset="1" stop-color="#F15F79"/>
</linearGradient>
<linearGradient id="paint2_linear_0_1" x1="8.55181" y1="63.1837" x2="196.189" y2="63.1837" gradientUnits="userSpaceOnUse">
<stop stop-color="#C84E89"/>
<stop offset="1" stop-color="#F15F79"/>
</linearGradient>
<linearGradient id="paint3_linear_0_1" x1="43.1774" y1="60.7021" x2="119.307" y2="60.7021" gradientUnits="userSpaceOnUse">
<stop stop-color="white"/>
<stop offset="1" stop-color="white"/>
</linearGradient>
<linearGradient id="paint4_linear_0_1" x1="43.1774" y1="60.7021" x2="119.307" y2="60.7021" gradientUnits="userSpaceOnUse">
<stop stop-color="white"/>
<stop offset="1" stop-color="white"/>
</linearGradient>
<linearGradient id="paint5_linear_0_1" x1="43.1774" y1="60.7021" x2="119.307" y2="60.7021" gradientUnits="userSpaceOnUse">
<stop stop-color="white"/>
<stop offset="1" stop-color="white"/>
</linearGradient>
<linearGradient id="paint6_linear_0_1" x1="43.1774" y1="60.7021" x2="119.307" y2="60.7021" gradientUnits="userSpaceOnUse">
<stop stop-color="white"/>
<stop offset="1" stop-color="white"/>
</linearGradient>
<clipPath id="clip0_0_1">
<rect width="330" height="129" fill="white"/>
</clipPath>
</defs>
</svg>
